<svg id="Layer" enable-background="new 0 0 64 64" height="512" viewBox="0 0 64 64" width="512" xmlns="http://www.w3.org/2000/svg"><path d="m52 33.019v-16.019c0-2.206-1.794-4-4-4h-3c-2.206 0-4 1.794-4 4v15.764c-1.385.933-2.677 2.164-3.766 3.54l-.38.095c-3.175.797-6.531.797-9.708 0l-.379-.095c-1.09-1.376-2.381-2.607-3.766-3.541v-15.763c0-2.206-1.794-4-4-4h-3c-2.206 0-4 1.794-4 4v16.019c-2.424 1.827-4.001 4.72-4.001 7.981 0 5.514 4.486 10 10 10 2.778 0 5.067-.293 6.885-.864.101-.01.203-.023.304-.049l1.958-.486c3.175-.798 6.533-.797 9.71 0l1.91.476c.099.029.197.03.296.044 1.825.58 4.132.879 6.937.879 5.514 0 10-4.486 10-10 0-3.261-1.577-6.154-4-7.981zm-7-16.019h3v14.202c-.646-.132-1.315-.202-2-.202-.331 0-.665.032-1 .083zm-29 0h3v14.083c-.335-.051-.669-.083-1-.083-.685 0-1.354.07-2 .202zm-4 24c0-3.309 2.691-6 6-6 3.141 0 8 5.468 8 9 0 .742 0 3-8 3-3.309 0-6-2.691-6-6zm17.906 4.106c.056-.355.094-.719.094-1.106 0-.986-.223-2.06-.623-3.154.871.095 1.747.15 2.623.15s1.752-.055 2.623-.15c-.4 1.094-.623 2.168-.623 3.154 0 .387.038.751.094 1.106-1.393-.121-2.795-.121-4.188 0zm16.094 1.894c-8 0-8-2.258-8-3 0-3.532 4.859-9 8-9 3.309 0 6 2.691 6 6s-2.691 6-6 6z"/></svg>