<svg id="Layer" enable-background="new 0 0 64 64" height="512" viewBox="0 0 64 64" width="512" xmlns="http://www.w3.org/2000/svg"><path d="m16 56h32c1.104 0 2-.896 2-2 0-4.227-.73-8.373-2.17-12.323l-4.962-13.635c1.884-1.326 3.132-3.808 3.132-6.042 0-2.672-2.35-5.549-5-6.591v-5.409c0-1.104-.896-2-2-2s-2 .896-2 2v5.529c-1.716.802-3.613 2.419-5 4.161-1.387-1.742-3.284-3.359-5-4.161v-5.529c0-1.104-.896-2-2-2s-2 .896-2 2v5.409c-2.65 1.042-5 3.918-5 6.591 0 2.234 1.248 4.716 3.132 6.042l-4.961 13.634c-1.441 3.951-2.171 8.097-2.171 12.324 0 1.104.896 2 2 2zm23-37c1.094 0 3 1.906 3 3 0 1.42-1.192 3-2 3-2.117 0-5.046-.629-5.934-1.237.528-1.463 3.745-4.616 4.934-4.763zm-14.031-.001c1.219.148 4.438 3.301 4.965 4.764-.888.608-3.817 1.237-5.934 1.237-.808 0-2-1.58-2-3 0-1.094 1.906-3 2.969-3.001zm-5.039 24.045 5.127-14.088c1.646-.108 4.85-.485 6.944-1.784 2.094 1.299 5.298 1.676 6.944 1.784l5.128 14.089c1.052 2.887 1.678 5.891 1.867 8.955h-3.94v-3c0-1.104-.896-2-2-2s-2 .896-2 2v3h-4v-3c0-1.104-.896-2-2-2s-2 .896-2 2v3h-4v-3c0-1.104-.896-2-2-2s-2 .896-2 2v3h-3.938c.189-3.064.815-6.068 1.868-8.956z"/></svg>