<svg id="Layer" enable-background="new 0 0 64 64" height="512" viewBox="0 0 64 64" width="512" xmlns="http://www.w3.org/2000/svg"><path d="m45.654 14.486c.223-.799.346-1.63.346-2.486v-2c0-1.104-.896-2-2-2h-24c-1.104 0-2 .896-2 2v2c0 .856.123 1.687.346 2.486-5.978 1.614-10.346 7.1-10.346 13.514v22c0 1.104.896 2 2 2h6v2c0 1.104.896 2 2 2h28c1.104 0 2-.896 2-2v-2h6c1.104 0 2-.896 2-2v-22c0-6.414-4.368-11.9-10.346-13.514zm-4.53.483c-.038.06-.078.116-.11.18-1.161 1.832-3.214 3.333-5.431 4.158l3.653-7.307h2.764c0 1.041-.326 2.044-.876 2.969zm-11.888-2.969h5.527l-2.763 5.528zm-4.472 0 3.653 7.307c-2.221-.826-4.277-2.33-5.437-4.167-.024-.048-.056-.09-.084-.135-.563-.935-.896-1.951-.896-3.005zm27.236 36h-4v-18c0-1.104-.896-2-2-2s-2 .896-2 2v22h-24v-22c0-1.104-.896-2-2-2s-2 .896-2 2v18h-4v-20c0-4.883 3.544-9.01 8.244-9.84 1.461 1.897 3.502 3.444 5.756 4.466v5.374c0 1.104.896 2 2 2s2-.896 2-2v-4.172c.671.104 1.341.172 2 .172s1.329-.068 2-.172v4.172c0 1.104.896 2 2 2s2-.896 2-2v-5.374c2.253-1.022 4.294-2.569 5.756-4.466 4.7.83 8.244 4.957 8.244 9.84z"/></svg>