<svg id="Layer" enable-background="new 0 0 64 64" height="512" viewBox="0 0 64 64" width="512" xmlns="http://www.w3.org/2000/svg"><path d="m42 8h-1-18-1c-7.72 0-14 6.28-14 14v13c0 2.372 1.189 4.47 3 5.736v4.264c0 2.206 1.794 4 4 4h3v5c0 1.104.896 2 2 2h24c1.104 0 2-.896 2-2v-5h3c2.206 0 4-1.794 4-4v-4.264c1.811-1.267 3-3.364 3-5.736v-13c0-7.72-6.28-14-14-14zm-10 9.01-4.509-5.01h9.018zm-17 27.99v-3h3v3zm7-19c0-1.104-.896-2-2-2s-2 .896-2 2v12h-3c-1.654 0-3-1.346-3-3v-13c0-5.514 4.486-10 10-10h.109l7.891 8.768v31.232h-8zm27 19h-3v-3h3zm3-10c0 1.654-1.346 3-3 3h-3v-12c0-1.104-.896-2-2-2s-2 .896-2 2v26h-8v-31.232l7.891-8.768h.109c5.514 0 10 4.486 10 10z"/></svg>