<svg id="Layer" enable-background="new 0 0 64 64" height="512" viewBox="0 0 64 64" width="512" xmlns="http://www.w3.org/2000/svg"><path d="m46.648 8.795c-1.488-.527-3.051-.795-4.648-.795h-20c-1.597 0-3.16.268-4.644.793-5.596 1.966-9.356 7.273-9.356 13.207v24c0 1.104.896 2 2 2h6v6c0 1.104.896 2 2 2h28c1.104 0 2-.896 2-2v-6h6c1.104 0 2-.896 2-2v-24c0-5.934-3.76-11.241-9.352-13.205zm-2.725 3.398c-.531 5.435-4.643 9.747-9.923 10.63v-3.055c3.685-.841 6.516-3.943 6.941-7.768h1.059c.652 0 1.293.069 1.923.193zm-11.923 3.807c-2.414 0-4.434-1.721-4.899-4h9.798c-.465 2.279-2.485 4-4.899 4zm-8.941-4c.425 3.825 3.256 6.928 6.941 7.768v3.055c-5.279-.884-9.392-5.195-9.924-10.63.63-.124 1.272-.193 1.924-.193zm-11.059 32v-3h4v3zm8-15c0-1.104-.896-2-2-2s-2 .896-2 2v8h-4v-15c0-3.309 1.642-6.34 4.265-8.182 1.216 6.884 6.787 12.179 13.735 13.044v25.138h-10zm24 23h-10v-25.138c6.949-.865 12.519-6.161 13.734-13.045 2.623 1.841 4.266 4.872 4.266 8.183v15h-4v-8c0-1.104-.896-2-2-2s-2 .896-2 2zm4-8v-3h4v3z"/></svg>