<svg id="Layer" enable-background="new 0 0 64 64" height="512" viewBox="0 0 64 64" width="512" xmlns="http://www.w3.org/2000/svg"><path d="m30 10c0-1.104-.896-2-2-2h-9c-1.104 0-2 .896-2 2v11c0 1.654-1.346 3-3 3-1.104 0-2 .896-2 2v26c0 2.206 1.794 4 4 4h10c.646 0 1.252-.312 1.627-.838l4.211-5.895c.061-.083.116-.173.162-.267.047.094.101.184.161.268l4.211 5.895c.376.525.982.837 1.628.837h10c2.206 0 4-1.794 4-4v-26c0-1.104-.896-2-2-2-.801 0-1.559-.313-2.118-.866-.569-.575-.882-1.333-.882-2.134v-11c0-1.104-.896-2-2-2h-9c-1.104 0-2 .896-2 2v11.774c0 .628-.264 1.241-.726 1.68-.227.216-.699.567-1.37.543-.495-.024-.967-.234-1.31-.572-.383-.388-.594-.894-.594-1.425zm-4 2v5h-5v-5zm17 0v5h-5v-5zm-11.287 15.993c1.588.077 3.131-.507 4.322-1.643 1.249-1.191 1.965-2.859 1.965-4.576v-.774h5c0 1.86.724 3.617 2.054 4.962.839.829 1.848 1.423 2.946 1.749v24.289h-8.971l-3.537-4.951c-.706-1.269-2.029-2.049-3.492-2.049s-2.786.78-3.492 2.049l-3.537 4.951h-8.971v-24.291c2.888-.863 5-3.544 5-6.709h5v1c0 1.589.62 3.092 1.766 4.254 1.065 1.051 2.466 1.668 3.947 1.739z"/><path d="m25 33v3c0 3.309 2.691 6 6 6h2c3.309 0 6-2.691 6-6v-3c0-1.104-.896-2-2-2h-10c-1.104 0-2 .896-2 2zm4 2h6v1c0 1.103-.897 2-2 2h-2c-1.103 0-2-.897-2-2z"/></svg>