<svg id="Layer" enable-background="new 0 0 64 64" height="512" viewBox="0 0 64 64" width="512" xmlns="http://www.w3.org/2000/svg"><path d="m42 8h-20c-7.72 0-14 6.28-14 14v24c0 1.104.896 2 2 2h6v6c0 1.104.896 2 2 2h28c1.104 0 2-.896 2-2v-6h6c1.104 0 2-.896 2-2v-24c0-7.72-6.28-14-14-14zm-20 4h.172l5.772 5.772-4.551.91-1.995-6.651c.2-.013.399-.031.602-.031zm5.828 0h8.344l-4.172 4.172zm14 0h.172c.203 0 .402.018.602.031l-1.995 6.651-4.551-.91zm-21.828 17c0-1.104-.896-2-2-2s-2 .896-2 2v15h-4v-22c0-3.907 2.258-7.289 5.532-8.934l2.552 8.508c.258.86 1.048 1.426 1.915 1.426.13 0 .262-.013.394-.04l7.607-1.521v30.561h-10zm32 15h-4v-15c0-1.104-.896-2-2-2s-2 .896-2 2v23h-10v-30.561l7.607 1.522c.132.027.264.04.394.04.867 0 1.657-.566 1.915-1.426l2.552-8.508c3.274 1.644 5.532 5.026 5.532 8.933z"/></svg>