<svg id="Layer" enable-background="new 0 0 64 64" height="512" viewBox="0 0 64 64" width="512" xmlns="http://www.w3.org/2000/svg"><path d="m54 8h-44c-1.104 0-2 .896-2 2v40c0 3.309 2.691 6 6 6h10.983c1.874 0 3.519-1.33 3.911-3.162.011-.051.02-.103.027-.154l1.829-13.684h2.5l1.829 13.684c.007.052.016.104.027.154.392 1.832 2.037 3.162 3.911 3.162h10.983c3.309 0 6-2.691 6-6v-40c0-1.104-.896-2-2-2zm-42 12h8.43c-1.093 4.063-4.401 7.055-8.43 7.809zm16-8h8v4h-8zm2 8h4v5c0 1.654-1.346 3-3 3h-1zm22 7.809c-4.029-.754-7.337-3.746-8.43-7.809h8.43zm0-11.809h-12v-4h12zm-28-4v4h-12v-4zm26 40h-10.977l-1.925-14.398c-.198-1.484-1.476-2.602-2.973-2.602h-4.25c-1.497 0-2.775 1.118-2.974 2.603l-1.924 14.397h-10.977c-1.103 0-2-.897-2-2v-18.147c5.938-.804 10.879-5.123 12.366-11.069l.196-.784h1.438v10c0 1.104.896 2 2 2h3c3.86 0 7-3.141 7-7v-5h1.438l.196.784c1.487 5.946 6.428 10.265 12.366 11.069v18.147c0 1.103-.897 2-2 2z"/></svg>