<svg id="Layer" enable-background="new 0 0 64 64" height="512" viewBox="0 0 64 64" width="512" xmlns="http://www.w3.org/2000/svg"><path d="m46 12h-28c-2.206 0-4 1.794-4 4v5.771l-5.911 25.391c-.254 1.187.038 2.409.801 3.353s1.897 1.485 3.111 1.485h4.999 7c.918 0 1.718-.625 1.94-1.515l2.56-10.24 2.56 10.24c.222.89 1.022 1.515 1.94 1.515h7 7 4.999c1.214 0 2.348-.541 3.111-1.485.763-.943 1.055-2.166.793-3.387l-5.903-25.359v-5.769c0-2.206-1.794-4-4-4zm0 4v4h-28.001l-.001-4zm2.591 32-2.642-11.45c-.249-1.076-1.327-1.744-2.399-1.499-1.076.249-1.747 1.322-1.499 2.399l2.434 10.55h-2.924l-2.621-10.485c-.269-1.072-1.354-1.725-2.426-1.455-1.071.268-1.723 1.354-1.455 2.426l2.379 9.514h-2.877l-2.258-9.031c-.436-1.748-2.001-2.969-3.804-2.969-1.802 0-3.366 1.221-3.803 2.969l-2.258 9.031h-2.924l2.435-10.55c.249-1.077-.423-2.15-1.499-2.399-1.075-.242-2.15.423-2.398 1.499l-2.645 11.461-3.414.023 5.595-24.034h28.824l5.587 24z"/></svg>