<svg id="Layer" enable-background="new 0 0 64 64" height="512" viewBox="0 0 64 64" width="512" xmlns="http://www.w3.org/2000/svg"><path d="m26.639 55.997c2.707 0 5.409-.978 7.474-2.922l11.996-11.308c1.202-1.127 1.891-2.719 1.891-4.367v-27.4c0-1.104-.896-2-2-2h-16c-1.104 0-2 .896-2 2v20.262l-8.84 8.401c-2.038 1.917-3.16 4.473-3.16 7.197 0 2.853 1.272 5.591 3.494 7.515 2.032 1.752 4.591 2.622 7.145 2.622zm16.729-17.143-2.796 2.636c-.36-.78-.572-1.622-.572-2.49 0-2.585 1.665-4.821 4-5.652v4.052c0 .556-.224 1.071-.632 1.454zm.632-26.854v3h-12v-3zm-22.092 29.569 9.47-9c.397-.377.622-.901.622-1.449v-12.12h12v10.213c-4.576.937-8 5.002-8 9.787 0 1.897.55 3.74 1.557 5.332l-6.188 5.832c-2.539 2.392-6.607 2.471-9.26.185-1.36-1.178-2.109-2.773-2.109-4.489 0-1.609.675-3.131 1.908-4.291z"/></svg>