<svg id="Layer" enable-background="new 0 0 64 64" height="512" viewBox="0 0 64 64" width="512" xmlns="http://www.w3.org/2000/svg"><path d="m42 8h-1.052c-.003 0-.006 0-.008 0h-17.88c-.001 0-.002 0-.003 0h-1.057c-7.72 0-14 6.28-14 14v24c0 1.104.896 2 2 2h6v6c0 1.104.896 2 2 2h28c1.104 0 2-.896 2-2v-6h6c1.104 0 2-.896 2-2v-24c0-7.72-6.28-14-14-14zm-4.633 4-3.238 5.114c-.567.573-1.317.886-2.129.886s-1.562-.313-2.128-.886l-3.238-5.114zm-25.367 32v-3h4v3zm32-10h-24v-4h24zm0 18h-24v-14h24zm4-8v-3h4v3zm4-7h-4v-13c0-1.104-.896-2-2-2s-2 .896-2 2v2h-24v-2c0-1.104-.896-2-2-2s-2 .896-2 2v13h-4v-15c0-5.481 4.433-9.942 9.902-9.995l4.692 7.41c.06.095.128.184.203.268 1.325 1.472 3.222 2.317 5.203 2.317 1.981 0 3.878-.845 5.203-2.317.075-.083.144-.173.203-.268l4.691-7.41c5.469.053 9.903 4.514 9.903 9.995z"/></svg>