<svg id="Layer" enable-background="new 0 0 64 64" height="512" viewBox="0 0 64 64" width="512" xmlns="http://www.w3.org/2000/svg"><path d="m42 8h-20c-7.72 0-14 6.28-14 14v24c0 1.104.896 2 2 2h6v6c0 1.104.896 2 2 2h28c1.104 0 2-.896 2-2v-6h6c1.104 0 2-.896 2-2v-24c0-7.72-6.28-14-14-14zm-3.295 4c-.863 2.888-3.541 5-6.705 5s-5.842-2.112-6.705-5zm13.295 32h-4v-20c0-1.104-.896-2-2-2s-2 .896-2 2v28h-24v-28c0-1.104-.896-2-2-2s-2 .896-2 2v20h-4v-22c0-5.243 4.058-9.548 9.197-9.959.961 5.092 5.435 8.959 10.803 8.959s9.842-3.867 10.803-8.959c5.139.411 9.197 4.716 9.197 9.959z"/></svg>