<svg id="Layer" enable-background="new 0 0 64 64" height="512" viewBox="0 0 64 64" width="512" xmlns="http://www.w3.org/2000/svg"><path d="m28 8h-7c-1.104 0-2 .896-2 2v10c0 1.654-1.346 3-3 3-1.104 0-2 .896-2 2v16c0 2.206 1.794 4 4 4h3.662c.967 0 1.794.69 1.968 1.642l1.104 6.073c.345 1.903 2 3.285 3.935 3.285h6.662c1.935 0 3.59-1.382 3.936-3.285l1.104-6.072c.173-.952 1-1.643 1.967-1.643h3.662c2.206 0 4-1.794 4-4v-16c0-1.104-.896-2-2-2-.801 0-1.559-.313-2.118-.867-.569-.574-.882-1.332-.882-2.133v-10c0-1.104-.896-2-2-2h-7c-1.104 0-2 .896-2 2v3.839c-1.323.203-2.677.203-4 0v-3.839c0-1.104-.896-2-2-2zm10 4h3v8c0 1.861.724 3.618 2.054 4.962.839.829 1.849 1.423 2.946 1.749v14.289h-3.662c-2.9 0-5.383 2.071-5.903 4.927l-1.104 6.073h-6.662l-1.104-6.073c0-.001 0-.001 0-.001-.52-2.855-3.003-4.926-5.903-4.926h-3.662v-14.291c2.889-.863 5-3.544 5-6.709v-8h3v9c0 1.589.62 3.092 1.766 4.254 1.065 1.05 2.467 1.667 3.947 1.739 1.605.071 3.131-.508 4.322-1.643 1.249-1.191 1.965-2.858 1.965-4.576zm-6 6c.67 0 1.337-.047 2-.125v2.899c0 .628-.265 1.241-.726 1.681-.227.216-.701.566-1.37.543-.494-.024-.967-.234-1.311-.572-.382-.389-.593-.895-.593-1.426v-3.125c.663.078 1.33.125 2 .125z"/></svg>