<svg id="Layer" enable-background="new 0 0 64 64" height="512" viewBox="0 0 64 64" width="512" xmlns="http://www.w3.org/2000/svg"><path d="m54 8h-44c-1.104 0-2 .896-2 2v40c0 3.309 2.691 6 6 6h10.983c1.874 0 3.519-1.33 3.928-3.249l1.809-10.751h2.559l1.827 10.838c.392 1.832 2.037 3.162 3.911 3.162h10.983c3.309 0 6-2.691 6-6v-40c0-1.104-.896-2-2-2zm-2 4v4h-40v-4zm-25.663 10.714c.387-.352 1.911-.66 3.61-.782-.122 1.699-.43 3.223-.779 3.607-.756.756-2.074.755-2.828 0-.377-.378-.585-.88-.585-1.414s.207-1.036.582-1.411zm11.323 2.825c-.755.755-2.075.753-2.825.003-.352-.388-.66-1.911-.782-3.61 1.699.122 3.222.43 3.607.779.377.378.585.88.585 1.414s-.207 1.036-.585 1.414c.001 0 .001 0 0 0zm12.34 26.461-10.966.087-1.935-11.485c-.199-1.484-1.477-2.602-2.974-2.602h-4.25c-1.497 0-2.775 1.118-2.963 2.535l-1.929 11.465h-10.983c-1.103 0-2-.897-2-2v-30h11.405c-1.063 1.119-1.651 2.576-1.651 4.125 0 1.603.624 3.109 1.757 4.242.768.768 1.709 1.296 2.733 1.56l-1.659 1.659c-.781.781-.781 2.047 0 2.828.391.391.903.586 1.415.586s1.023-.195 1.414-.586l4.586-4.585 4.586 4.586c.391.39.902.585 1.414.585s1.024-.195 1.414-.586c.781-.781.781-2.047 0-2.828l-1.659-1.659c1.024-.265 1.966-.792 2.733-1.56 1.133-1.133 1.757-2.64 1.757-4.242 0-1.549-.588-3.006-1.651-4.125h11.406v30c0 1.103-.897 2-2 2z"/></svg>