<svg id="Layer" enable-background="new 0 0 64 64" height="512" viewBox="0 0 64 64" width="512" xmlns="http://www.w3.org/2000/svg"><path d="m16 56h32c1.104 0 2-.896 2-2v-26c0-1.104-.896-2-2-2-.801 0-1.559-.313-2.118-.867-.569-.574-.882-1.332-.882-2.133v-13c0-1.104-.896-2-2-2h-7c-1.104 0-2 .896-2 2v6.839c-1.323.203-2.677.203-4 0v-6.839c0-1.104-.896-2-2-2h-7c-1.104 0-2 .896-2 2v13c0 1.654-1.346 3-3 3-1.104 0-2 .896-2 2v26c0 1.104.896 2 2 2zm16-35c.67 0 1.337-.047 2-.125v3.125c0 1.103-.897 2-2 2-.531 0-1.037-.211-1.406-.574-.383-.389-.594-.895-.594-1.426v-3.125c.663.078 1.33.125 2 .125zm-14 8.709c2.888-.863 5-3.544 5-6.709v-11h3v12c0 1.589.62 3.092 1.766 4.254 1.142 1.126 2.645 1.746 4.234 1.746 3.309 0 6-2.691 6-6v-12h3v11c0 1.861.724 3.618 2.054 4.962.839.829 1.849 1.423 2.946 1.749v22.289h-28z"/></svg>