<svg id="Layer" enable-background="new 0 0 64 64" height="512" viewBox="0 0 64 64" width="512" xmlns="http://www.w3.org/2000/svg"><path d="m42 8h-20c-7.72 0-14 6.28-14 14v8c0 1.104.896 2 2 2h6v22c0 1.104.896 2 2 2h28c1.104 0 2-.896 2-2v-22h6c1.104 0 2-.896 2-2v-8c0-7.72-6.28-14-14-14zm-3.295 4c-.863 2.888-3.541 5-6.705 5s-5.842-2.112-6.705-5zm13.295 16h-4v-4c0-1.104-.896-2-2-2s-2 .896-2 2v28h-24v-28c0-1.104-.896-2-2-2s-2 .896-2 2v4h-4v-6c0-5.243 4.058-9.548 9.197-9.959.961 5.092 5.435 8.959 10.803 8.959s9.842-3.867 10.803-8.959c5.139.411 9.197 4.716 9.197 9.959z"/></svg>