<svg id="Layer" enable-background="new 0 0 64 64" height="512" viewBox="0 0 64 64" width="512" xmlns="http://www.w3.org/2000/svg"><path d="m42 8h-20c-7.72 0-14 6.28-14 14v8c0 1.104.896 2 2 2h5v22c0 1.104.896 2 2 2h30c1.104 0 2-.896 2-2v-22h5c1.104 0 2-.896 2-2v-8c0-7.72-6.28-14-14-14zm-3.295 4c-.863 2.888-3.541 5-6.705 5s-5.842-2.112-6.705-5zm13.295 16h-3v-4c0-1.104-.896-2-2-2s-2 .896-2 2v28h-26v-28c0-1.104-.896-2-2-2s-2 .896-2 2v4h-3v-6c0-5.243 4.058-9.548 9.197-9.959.961 5.092 5.435 8.959 10.803 8.959s9.842-3.867 10.803-8.959c5.139.411 9.197 4.716 9.197 9.959z"/><path d="m40 24h-8c-1.104 0-2 .896-2 2v4c0 3.309 2.691 6 6 6s6-2.691 6-6v-4c0-1.104-.896-2-2-2zm-2 6c0 1.103-.897 2-2 2s-2-.897-2-2v-2h4z"/></svg>