<svg id="Layer" enable-background="new 0 0 64 64" height="512" viewBox="0 0 64 64" width="512" xmlns="http://www.w3.org/2000/svg"><path d="m42 8h-20c-7.72 0-14 6.28-14 14v24c0 1.104.896 2 2 2h6v6c0 1.104.896 2 2 2h28c1.104 0 2-.896 2-2v-6h6c1.104 0 2-.896 2-2v-24c0-7.72-6.28-14-14-14zm-1.857 7.743 1.538 3.844-6.974 7.751c-.05.055-.109.099-.165.148l3.097-15.486h3.049l-.629 2.515c-.101.408-.072.838.084 1.228zm-16.203-1.228-.628-2.515h3.049l3.097 15.486c-.054-.048-.112-.09-.161-.144l-6.978-7.755 1.538-3.844c.156-.39.185-.82.083-1.228zm8.06 5.287-1.56-7.802h3.121zm-12 14.198c0-1.104-.896-2-2-2s-2 .896-2 2v10h-4v-22c0-4.572 3.088-8.428 7.284-9.615l.618 2.473-1.76 4.399c-.283.708-.14 1.515.37 2.081l7.814 8.684c.961 1.063 2.27 1.736 3.673 1.921v20.057h-9.999zm32 10h-4v-10c0-1.104-.896-2-2-2s-2 .896-2 2v18h-10v-20.057c1.403-.185 2.713-.859 3.677-1.925l7.81-8.68c.51-.566.653-1.373.37-2.081l-1.76-4.399.618-2.473c4.197 1.187 7.285 5.043 7.285 9.615z"/></svg>