<svg id="Layer" enable-background="new 0 0 64 64" height="512" viewBox="0 0 64 64" width="512" xmlns="http://www.w3.org/2000/svg"><path d="m54 12h-44c-1.104 0-2 .896-2 2v32c0 3.309 2.691 6 6 6h9.383c1.874 0 3.519-1.33 3.911-3.162l1.53-7.147c.693.197 1.421.309 2.176.309h2c.755 0 1.483-.112 2.176-.309l1.53 7.147c.392 1.832 2.037 3.162 3.911 3.162h9.383c3.309 0 6-2.691 6-6v-32c0-1.104-.896-2-2-2zm-2 4v4h-13-14-13v-4zm-15 18c0 1.372-.695 2.583-1.75 3.303l-.72-3.039c-.986-3.626-3.949-6.317-7.53-7.055v-3.209h10zm-23 14c-1.103 0-2-.897-2-2v-22h11v10c0 2.129.842 4.062 2.203 5.497l-1.82 8.503zm13-14v-2.648c1.757.632 3.156 2.071 3.654 3.899l.651 2.749h-.305c-2.206 0-4-1.794-4-4zm23 14h-9.383l-1.82-8.503c1.361-1.435 2.203-3.368 2.203-5.497v-10h11v22c0 1.103-.897 2-2 2z"/></svg>