<svg id="Layer" enable-background="new 0 0 64 64" height="512" viewBox="0 0 64 64" width="512" xmlns="http://www.w3.org/2000/svg"><path d="m52 19h-40c-2.206 0-4 1.794-4 4v4.923c0 2.717 1.834 5.102 4.461 5.798l4.562 1.211c.167.046.339.068.513.068 1.78 0 3.32 1.146 3.832 2.852l.862 2.872c.766 2.557 3.076 4.276 5.746 4.276h8.047c2.671 0 4.98-1.719 5.748-4.276l.861-2.872c.513-1.706 2.052-2.852 3.832-2.852.173 0 .346-.022.513-.067l4.563-1.211c2.626-.697 4.46-3.081 4.46-5.799v-4.923c0-2.206-1.794-4-4-4zm-18 6c0 1.103-.897 2-2 2s-2-.897-2-2 .897-2 2-2 2 .897 2 2zm18 2.923c0 .906-.611 1.7-1.486 1.933l-4.328 1.149c-3.441.116-6.388 2.376-7.385 5.697l-.861 2.872c-.256.853-1.026 1.426-1.917 1.426h-8.047c-.89 0-1.66-.572-1.916-1.426l-.862-2.872c-.996-3.321-3.942-5.582-7.384-5.697l-4.327-1.149c-.876-.232-1.487-1.027-1.487-1.933v-4.923h14.35c-.222.627-.35 1.298-.35 2 0 1.953.942 3.685 2.39 4.781l-.804.804c-.781.781-.781 2.047 0 2.828.78.781 2.048.781 2.828 0l1.586-1.584 1.586 1.585c.391.391.902.586 1.414.586s1.023-.195 1.414-.586c.781-.781.781-2.047 0-2.828l-.804-.804c1.448-1.097 2.39-2.829 2.39-4.782 0-.702-.128-1.373-.35-2h14.35z"/></svg>