<svg id="Layer" enable-background="new 0 0 64 64" height="512" viewBox="0 0 64 64" width="512" xmlns="http://www.w3.org/2000/svg"><path d="m42 8h-1.287c-.005 0-.009 0-.014 0h-17.404c-.002 0-.003 0-.005 0h-1.29c-7.72 0-14 6.28-14 14v8c0 1.104.896 2 2 2h6v22c0 1.104.896 2 2 2h28c1.104 0 2-.896 2-2v-22h6c1.104 0 2-.896 2-2v-8c0-7.72-6.28-14-14-14zm-4.408 4-1.381 3.105c-.959 1.92-2.404 3.497-4.211 4.608-1.806-1.11-3.246-2.677-4.173-4.527l-1.418-3.186zm14.408 16h-4v-4c0-1.104-.896-2-2-2s-2 .896-2 2v28h-24v-28c0-1.104-.896-2-2-2s-2 .896-2 2v4h-4v-6c0-5.514 4.486-10 10-10h.031l2.179 4.895c1.503 3.007 3.888 5.391 6.895 6.895.282.14.588.21.895.21s.613-.07.895-.211c3.007-1.503 5.391-3.888 6.933-6.976l2.141-4.813h.031c5.514 0 10 4.486 10 10z"/></svg>