<svg id="Layer" enable-background="new 0 0 64 64" height="512" viewBox="0 0 64 64" width="512" xmlns="http://www.w3.org/2000/svg"><path d="m54 28c-3.309 0-6-2.691-6-6v-12c0-1.104-.896-2-2-2h-5c-.28 0-.557.059-.813.172-5.203 2.313-11.172 2.313-16.375 0-.255-.113-.532-.172-.812-.172h-5c-1.104 0-2 .896-2 2v12c0 3.309-2.691 6-6 6-1.104 0-2 .896-2 2v20c0 .791.466 1.507 1.187 1.828l9 4c.518.229 1.107.229 1.625 0l8.613-3.828h7.151l8.612 3.828c.258.114.535.172.812.172s.554-.058.812-.172l9-4c.722-.321 1.188-1.037 1.188-1.828v-20c0-1.104-.896-2-2-2zm-17.189-14.576-2.438 3.414c-.243.339-.373.745-.373 1.162v30h-4v-30c0-.417-.13-.823-.372-1.163l-2.438-3.414c3.173.644 6.447.644 9.621.001zm-17.811 38.388-7-3.112v-16.901c4.559-.93 8-4.97 8-9.799v-10h1.268c.032.055.067.109.104.163l4.628 6.478v30.059zm33-3.112-7 3.111-7-3.111v-30.059l4.628-6.479c.037-.053.072-.107.104-.163h1.268v10c0 4.829 3.441 8.87 8 9.799z"/><path d="m21 34h-4c-1.104 0-2 .896-2 2s.896 2 2 2h4c1.104 0 2-.896 2-2s-.896-2-2-2z"/><path d="m41 36c0 1.104.896 2 2 2h4c1.104 0 2-.896 2-2s-.896-2-2-2h-4c-1.104 0-2 .896-2 2z"/><path d="m21 42h-4c-1.104 0-2 .896-2 2s.896 2 2 2h4c1.104 0 2-.896 2-2s-.896-2-2-2z"/><path d="m47 42h-4c-1.104 0-2 .896-2 2s.896 2 2 2h4c1.104 0 2-.896 2-2s-.896-2-2-2z"/></svg>